<svg xmlns="http://www.w3.org/2000/svg" width="256" height="256" viewBox="0 0 100 100"><rect width="100" height="100" rx="50" fill="#000000"></rect><path fill="#c0fdff" d="M32.51 21.30L32.51 21.30Q34.27 21.30 35.94 21.22Q37.61 21.13 39.54 21.00Q41.47 20.86 42.71 20.78L42.71 20.78Q42.88 21.13 42.84 22.23Q42.79 23.33 42.53 23.33L42.53 23.33Q41.65 23.33 39.37 23.94Q37.08 24.56 36.90 25.17L36.90 25.17Q36.11 28.25 36.11 33.34L36.11 33.34L36.11 47.67L36.73 48.20L37.34 48.20Q40.16 48.20 42.44 45.65L42.44 45.65Q52.72 34.14 57.56 27.81L57.56 27.81Q59.67 25.26 59.67 24.47L59.67 24.47Q59.67 22.97 54.66 22.97L54.66 22.97Q54.31 22.97 54.31 22.18Q54.31 21.39 54.48 20.78L54.48 20.78Q55.63 20.86 57.47 21.00Q59.32 21.13 60.90 21.22Q62.48 21.30 63.89 21.30L63.89 21.30Q66.08 21.30 68.90 21.08Q71.71 20.86 72.76 20.78L72.76 20.78Q72.94 21.13 72.90 22.05Q72.85 22.97 72.59 22.97L72.59 22.97Q67.23 23.59 64.50 26.67L64.50 26.67L46.84 47.23Q46.13 48.02 47.45 49.60L47.45 49.60L68.63 72.90Q70.04 74.39 72.32 75.36Q74.61 76.32 75.88 76.50Q77.16 76.67 77.95 76.67L77.95 76.67Q78.39 76.67 78.39 78.26L78.39 78.26Q78.39 78.87 78.21 79.22L78.21 79.22Q69.42 78.78 67.31 78.78L67.31 78.78Q65.12 78.78 63.36 78.87Q61.60 78.96 59.40 79.05Q57.21 79.14 55.45 79.22L55.45 79.22Q55.10 78.87 55.10 77.77Q55.10 76.67 55.45 76.67L55.45 76.67Q56.50 76.67 57.87 76.32Q59.23 75.97 59.23 75.27L59.23 75.27Q59.23 72.46 39.28 51.98L39.28 51.98Q38.93 51.63 36.73 51.63L36.73 51.63Q36.11 51.63 36.11 52.33L36.11 52.33L36.11 66.74Q36.11 71.84 36.90 74.92L36.90 74.92Q37.08 75.53 39.37 76.10Q41.65 76.67 42.53 76.67L42.53 76.67Q42.79 76.67 42.84 77.73Q42.88 78.78 42.71 79.22L42.71 79.22Q33.92 78.78 32.51 78.78L32.51 78.78Q32.07 78.78 21.96 79.22L21.96 79.22Q21.61 78.87 21.61 77.91L21.61 77.91Q21.61 76.67 21.96 76.67L21.96 76.67Q23.11 76.67 25.35 76.15Q27.59 75.62 27.85 74.92L27.85 74.92Q28.47 72.54 28.47 67.09L28.47 67.09L28.47 32.99Q28.47 27.54 27.85 25.17L27.85 25.17Q27.59 24.47 25.35 23.90Q23.11 23.33 21.96 23.33L21.96 23.33Q21.61 23.33 21.61 22.18L21.61 22.18Q21.61 21.13 21.96 20.78L21.96 20.78Q23.11 20.86 26.62 21.08Q30.14 21.30 32.51 21.30Z"></path></svg>